<svg width="600" height="600" viewBox="0 0 600 600" fill="none" xmlns="http://www.w3.org/2000/svg">
    <path d="M395.708 361.197L385.646 332.602L372.395 294.95L362.809 267.701L350.261 232.04L335.684 190.619H264.979L253.693 222.693L243.63 251.288L193.656 393.303H240.289L254.918 351.85H325.636L313.087 316.188H267.415L277 288.94L297.021 232.04L300.33 222.622L303.64 232.04L360.36 393.27L360.373 393.303H407.005L395.708 361.197Z" fill="#15252D"/>
    <path d="M492.554 192.354C491.382 190.276 489.433 188.749 487.135 188.108C484.838 187.468 482.38 187.766 480.302 188.938C478.224 190.11 476.697 192.059 476.057 194.357C475.416 196.655 475.715 199.113 476.886 201.19C500.737 243.598 508.516 293.177 498.8 340.852C489.084 388.526 462.523 431.107 423.978 460.798C385.434 490.49 337.485 505.307 288.91 502.536C240.334 499.765 194.381 479.592 159.464 445.709C124.546 411.827 102.999 366.502 98.7673 318.032C94.5357 269.562 107.903 221.189 136.421 181.769C164.939 142.348 206.701 114.518 254.062 103.371C301.422 92.2248 351.213 98.5083 394.319 121.072C392.938 127.431 393.855 134.073 396.907 139.82C399.958 145.567 404.948 150.047 410.989 152.465C417.031 154.882 423.733 155.081 429.907 153.026C436.081 150.97 441.327 146.794 444.714 141.238C448.101 135.681 449.409 129.105 448.407 122.675C447.405 116.246 444.158 110.379 439.241 106.117C434.324 101.855 428.056 99.4727 421.549 99.3934C415.043 99.3142 408.718 101.543 403.699 105.684C356.847 80.8411 302.609 73.7215 250.932 85.6307C199.255 97.5399 153.604 127.68 122.35 170.523C91.0963 213.366 76.3351 266.04 80.7739 318.885C85.2126 371.73 108.554 421.204 146.516 458.233C184.479 495.262 234.518 517.364 287.457 520.486C340.397 523.608 392.687 507.541 434.739 475.23C476.791 442.92 505.785 396.532 516.404 344.575C527.023 292.618 518.556 238.574 492.554 192.355V192.354Z" fill="#15252D"/>
    <style>
        path {
        fill: #15252D;
        }
        @media (prefers-color-scheme: dark) {
        path {
        fill: #feeadb;
        }
        }
    </style>
</svg>
